<?xml version="1.0" encoding="utf-8"?>
<!-- Generator: Adobe Illustrator 16.0.0, SVG Export Plug-In . SVG Version: 6.00 Build 0)  -->
<!DOCTYPE svg PUBLIC "-//W3C//DTD SVG 1.1//EN" "http://www.w3.org/Graphics/SVG/1.1/DTD/svg11.dtd">
<svg version="1.1" id="Layer_1" xmlns="http://www.w3.org/2000/svg" xmlns:xlink="http://www.w3.org/1999/xlink" x="0px" y="0px"
	 width="200px" height="200px" viewBox="0 0 200 200" enable-background="new 0 0 200 200" xml:space="preserve">
<path fill="#FFFFFF" d="M99,120.223c-3.223,0-4.666-2.611-4.666-5.834L92,74.723c0-3.223,3.777-5.834,7-5.834
	c3.223,0,7,2.611,7,5.834l-2.334,39.666C103.666,117.611,102.223,120.223,99,120.223z"/>
<circle fill="#FFFFFF" cx="98.562" cy="134.855" r="5.59"/>
<path fill="none" stroke="#FFFFFF" stroke-width="10" stroke-linecap="round" stroke-miterlimit="10" d="M175.5,89.834
	c0-21.262-16.986-38.499-38.25-38.499c-2.043,0-3.923,0.162-5.88,0.469c-7.856-9.255-19.507-15.136-32.6-15.136
	c-13.069,0-24.733,5.861-32.59,15.092c-1.864-0.277-3.755-0.425-5.696-0.425c-21.262,0-38.991,17.237-38.991,38.499
	c0,19.74,14.507,36,33.507,38.229V166h86v-37.938C161,125.834,175.5,109.574,175.5,89.834z"/>
</svg>
