<?xml version="1.0" encoding="utf-8"?>
<!-- Generator: Adobe Illustrator 16.0.0, SVG Export Plug-In . SVG Version: 6.00 Build 0)  -->
<!DOCTYPE svg PUBLIC "-//W3C//DTD SVG 1.1//EN" "http://www.w3.org/Graphics/SVG/1.1/DTD/svg11.dtd">
<svg version="1.1" id="Layer_1" xmlns="http://www.w3.org/2000/svg" xmlns:xlink="http://www.w3.org/1999/xlink" x="0px" y="0px"
	 width="200px" height="200px" viewBox="0 0 200 200" enable-background="new 0 0 200 200" xml:space="preserve">
<path fill="none" stroke="#FFFFFF" stroke-width="6" stroke-linecap="round" stroke-miterlimit="10" d="M126.939,147.654
	c7.588-1.064,12.125-13.409,10.138-27.571c-1.988-14.164-9.75-24.78-17.339-23.716c0,0-112.496,25.755-110.268,41.63
	C11.7,153.872,126.939,147.654,126.939,147.654z"/>
<line fill="none" stroke="#FFFFFF" stroke-width="5" stroke-linecap="round" stroke-miterlimit="10" x1="103.404" y1="108.623" x2="107.605" y2="138.539"/>
<line fill="none" stroke="#FFFFFF" stroke-width="5" stroke-linecap="round" stroke-miterlimit="10" x1="94.503" y1="111.739" x2="97.161" y2="130.667"/>
<line fill="none" stroke="#FFFFFF" stroke-width="5" stroke-linecap="round" stroke-miterlimit="10" x1="48.22" y1="141.273" x2="46.934" y2="132.115"/>
<path fill="none" stroke="#FFFFFF" stroke-width="6" stroke-linecap="round" stroke-miterlimit="10" d="M136.814,112.432
	c0,0,13.606-16.521,25.336-16.221c11.73,0.301,5.029,8.063-0.568,9.821c-5.598,1.76,2.85,6.417,11.003,5.517
	c8.151-0.9,18.795-1.421,20.521,3.938c1.728,5.359-8.444,9.223-15.133,10.16c-6.687,0.938-14.998-2.765-19.229-1.684
	s-4.04,5.924,0.659,8.188c4.703,2.262,3.472,3.896,0.74,5.255c-2.732,1.354-21.181-9.691-21.181-9.691"/>
<path fill="none" stroke="#FFFFFF" stroke-width="6" stroke-linecap="round" stroke-linejoin="round" stroke-miterlimit="10" d="
	M26.877,124.293c-6.542-5.863-10.657-14.378-10.657-23.854c0-6.039,2.6-14.258,5.505-19.079c0,0-7.193-9.783-15.208-10.81
	c0,0,4.942-2.762,9.236-4.119c0,0-0.81-8.776-0.193-17.46c0,0,9.268,18.721,16.197,22.288c1.426,0.735,11.886-2.846,16.489-2.846
	c17.688,0,32.027,14.339,32.027,32.026c0,2.113-0.204,4.18-0.597,6.18"/>
<path fill="none" stroke="#FFFFFF" stroke-width="5" stroke-linecap="round" stroke-miterlimit="10" d="M44.333,79.92
	c0,0,19.267,0.867,24.045,18.908"/>
<path fill="none" stroke="#FFFFFF" stroke-width="5" stroke-linecap="round" stroke-miterlimit="10" d="M27.479,92.217
	c0,0-4.52,10.238,3.289,19.522"/>
<path fill="none" stroke="#FFFFFF" stroke-width="5" stroke-linecap="round" stroke-miterlimit="10" d="M32.823,94.512
	c0,0-2.055,5.548,1.644,10.07"/>
</svg>
