<?xml version="1.0" encoding="utf-8"?>
<!-- Generator: Adobe Illustrator 16.0.0, SVG Export Plug-In . SVG Version: 6.00 Build 0)  -->
<!DOCTYPE svg PUBLIC "-//W3C//DTD SVG 1.1//EN" "http://www.w3.org/Graphics/SVG/1.1/DTD/svg11.dtd">
<svg version="1.1" id="Layer_1" xmlns="http://www.w3.org/2000/svg" xmlns:xlink="http://www.w3.org/1999/xlink" x="0px" y="0px"
	 width="140.75px" height="163px" viewBox="0 0 140.75 163" enable-background="new 0 0 140.75 163" xml:space="preserve">
<polygon fill="none" stroke="#FFFFFF" stroke-width="3" stroke-miterlimit="10" points="126.648,140.5 92.93,140.5 96.608,98.5 
	122.971,98.5 "/>
<line fill="none" stroke="#6FA724" stroke-width="2" stroke-miterlimit="10" x1="1" y1="33" x2="100" y2="33"/>
<line fill="none" stroke="#FFFFFF" stroke-width="2" stroke-miterlimit="10" x1="100" y1="33" x2="139" y2="33"/>
<g>
	<path fill="#6FA724" d="M36.218,100.809c9.313,0,16.861,7.55,16.861,16.86c0,9.313-7.549,16.86-16.861,16.86
		c-9.31,0-16.86-7.548-16.86-16.86C19.357,108.358,26.908,100.809,36.218,100.809 M36.218,97.809c-10.951,0-19.86,8.909-19.86,19.86
		s8.909,19.86,19.86,19.86c10.952,0,19.861-8.909,19.861-19.86S47.169,97.809,36.218,97.809L36.218,97.809z"/>
</g>
<line fill="none" stroke="#6FA724" stroke-width="3" stroke-miterlimit="10" x1="37.5" y1="100" x2="37.5" y2="18"/>
<polyline fill="none" stroke="#6FA724" stroke-width="3" stroke-linejoin="round" stroke-miterlimit="10" points="78,65.5 
	64.229,65.5 59.904,65.5 78.5,158.746 78.5,58.946 78.5,1 "/>
<line fill="none" stroke="#FFFFFF" stroke-width="3" stroke-miterlimit="10" x1="109.5" y1="99" x2="109.5" y2="18"/>
</svg>
