<?xml version="1.0" encoding="utf-8"?>
<!-- Generator: Adobe Illustrator 16.0.0, SVG Export Plug-In . SVG Version: 6.00 Build 0)  -->
<!DOCTYPE svg PUBLIC "-//W3C//DTD SVG 1.1//EN" "http://www.w3.org/Graphics/SVG/1.1/DTD/svg11.dtd">
<svg version="1.1" id="Layer_1" xmlns="http://www.w3.org/2000/svg" xmlns:xlink="http://www.w3.org/1999/xlink" x="0px" y="0px"
	 width="35px" height="35px" viewBox="0 0 35 35" enable-background="new 0 0 35 35" xml:space="preserve">
<path fill="#408429" d="M28.374,8.595c1.229,0,2.299,0.34,2.866,0.681c0.567,0.34,1.795,1.3,1.984,2.911s-0.567,6.348-1.102,8.887
	c-0.536,2.54-1.732,6.379-2.299,7.525c-0.567,1.146-1.575,2.942-1.984,3.468c-0.41,0.526-1.417,1.765-1.827,1.239
	c-0.409-0.526-0.094-3.283,0.158-5.357c0.252-2.075,0.221-5.76-0.031-8.299s-0.851-4.955-1.26-5.915
	c-0.41-0.96-0.977-1.765-0.725-2.663s0.945-1.796,1.953-2.075S27.303,8.595,28.374,8.595z"/>
<path fill="#107726" d="M24.252,2.227c0.174-0.198,0.409-0.307,0.658-0.162c0.241,0.141,0.465,0.31,0.682,0.483
	c0.685,0.546,1.34,1.193,1.762,1.962c0.501,0.914,0.72,1.828,0.809,2.314c0.212-0.005,0.428,0.015,0.644,0.066
	c1.547,0.372,2.646,1.742,2.646,1.742c-3.472-1.638-6.094,0-6.094,0c0.239-0.605,1.024-1.357,1.986-1.667
	c-0.006-0.057-0.013-0.114-0.02-0.17c-0.038-0.311-0.106-0.628-0.19-0.93c-0.249-0.886-0.814-1.72-1.611-2.214
	c-0.449-0.279-1.004-0.105-1.358-0.686C24.007,2.708,24.06,2.445,24.252,2.227z"/>
</svg>
