<?xml version="1.0" encoding="utf-8"?>
<!-- Generator: Adobe Illustrator 16.0.0, SVG Export Plug-In . SVG Version: 6.00 Build 0)  -->
<!DOCTYPE svg PUBLIC "-//W3C//DTD SVG 1.1//EN" "http://www.w3.org/Graphics/SVG/1.1/DTD/svg11.dtd">
<svg version="1.1" id="Layer_1" xmlns="http://www.w3.org/2000/svg" xmlns:xlink="http://www.w3.org/1999/xlink" x="0px" y="0px"
	 width="200px" height="200px" viewBox="0 0 200 200" enable-background="new 0 0 200 200" xml:space="preserve">
<path fill="#FFFFFF" d="M99,51c-2.761,0-5-2.239-5-5V23c0-2.761,2.239-5,5-5c2.762,0,5,2.239,5,5v23C104,48.761,101.762,51,99,51z"
	/>
<polygon fill="#FFFFFF" points="99,41 88,52 110,52 "/>
<path fill="#FFFFFF" d="M194,87h-20V77h-0.097c0.162-2.227,0.056-8.629-5.338-15.757c-8.737-11.545-26.558-19.017-52.966-22.207
	c-2.749-0.333-5.232,1.624-5.563,4.364c-0.331,2.741,1.623,5.232,4.364,5.563c51.246,6.191,49.55,27.161,49.526,27.372L163.845,77
	H37.979c0-0.238,0.004-0.475-0.031-0.717c-0.006-0.042-0.431-4.465,3.605-9.79c4.626-6.102,15.684-14.097,42.092-17.535
	c2.738-0.356,4.669-2.865,4.313-5.604s-2.866-4.672-5.604-4.313c-23.955,3.119-40.364,10.322-48.77,21.41
	c-5.906,7.79-5.762,14.842-5.584,16.794V87H6c-2.761,0-5,2.239-5,5s2.239,5,5,5h22v37v25v6c0,8.837,7.164,16,16,16h114
	c8.837,0,16-7.163,16-16v-6v-25V97h20c2.762,0,5-2.239,5-5S196.762,87,194,87z M143,134c0,1.381-1.119,2.5-2.5,2.5
	s-2.5-1.119-2.5-2.5V92c0-1.381,1.119-2.5,2.5-2.5s2.5,1.119,2.5,2.5V134z M158,164c0,1.933-1.567,3.5-3.5,3.5s-3.5-1.567-3.5-3.5
	V92c0-1.933,1.567-3.5,3.5-3.5s3.5,1.567,3.5,3.5V164z"/>
</svg>
