<?xml version="1.0" encoding="utf-8"?>
<!-- Generator: Adobe Illustrator 16.0.0, SVG Export Plug-In . SVG Version: 6.00 Build 0)  -->
<!DOCTYPE svg PUBLIC "-//W3C//DTD SVG 1.1//EN" "http://www.w3.org/Graphics/SVG/1.1/DTD/svg11.dtd">
<svg version="1.1" id="Layer_1" xmlns="http://www.w3.org/2000/svg" xmlns:xlink="http://www.w3.org/1999/xlink" x="0px" y="0px"
	 width="200px" height="200px" viewBox="0 0 200 200" enable-background="new 0 0 200 200" xml:space="preserve">
<path fill="#3E3E3E" d="M28,77v57v25v6c0,8.837,7.164,16,16,16h114c8.837,0,16-7.163,16-16v-6v-25V77H28z"/>
<path fill="none" stroke="#3E3E3E" stroke-width="10" stroke-linecap="round" stroke-miterlimit="10" d="M33,77c0,0-3.769-26,50-33"
	/>
<path fill="none" stroke="#3E3E3E" stroke-width="10" stroke-linecap="round" stroke-miterlimit="10" d="M168.882,77
	c0,0,4.061-26-53.882-33"/>
<line fill="none" stroke="#3E3E3E" stroke-width="10" stroke-linecap="round" stroke-miterlimit="10" x1="6" y1="92" x2="194" y2="92"/>
<line fill="none" stroke="#3E3E3E" stroke-width="10" stroke-linecap="round" stroke-miterlimit="10" x1="99" y1="23" x2="99" y2="46"/>
<polygon fill="#3E3E3E" points="99,41 88,52 110,52 "/>
<line fill="none" stroke="#FFFFFF" stroke-width="7" stroke-linecap="round" stroke-miterlimit="10" x1="154.5" y1="92" x2="154.5" y2="164"/>
<line fill="none" stroke="#FFFFFF" stroke-width="5" stroke-linecap="round" stroke-miterlimit="10" x1="140.5" y1="92" x2="140.5" y2="134"/>
</svg>
