<?xml version="1.0" encoding="utf-8"?>
<!-- Generator: Adobe Illustrator 16.0.0, SVG Export Plug-In . SVG Version: 6.00 Build 0)  -->
<!DOCTYPE svg PUBLIC "-//W3C//DTD SVG 1.1//EN" "http://www.w3.org/Graphics/SVG/1.1/DTD/svg11.dtd">
<svg version="1.1" id="Layer_1" xmlns="http://www.w3.org/2000/svg" xmlns:xlink="http://www.w3.org/1999/xlink" x="0px" y="0px"
	 width="200px" height="200px" viewBox="0 0 200 200" enable-background="new 0 0 200 200" xml:space="preserve">
<path fill="none" stroke="#FFFFFF" stroke-width="5" stroke-linecap="round" stroke-miterlimit="10" d="M133.417,123.165
	c2.509-4.671,4.543-9.611,5.746-14.729c1.857-7.885,9.278-14.637,15.541-13.246c6.264,1.391,14.093,7.184,15.076,8.104
	c0.981,0.921,3.687,3.152,5.528,1.742c1.99-1.527,16.042-13.812,16.042-13.812s2.318-1.627-0.466-4.875l-26.207-31.543
	c0,0-0.231-3.016,2.087-4.872c2.319-1.854,5.565-7.421,4.176-8.349c-1.393-0.928-8.583-1.624-14.38,0.927
	c-5.8,2.552-19.021,10.895-23.892,12.518c-4.87,1.625-17.394,5.559-17.394,5.559"/>
<circle fill="#FFFFFF" cx="156.559" cy="69.649" r="4.639"/>
<path fill="none" stroke="#FFFFFF" stroke-width="5" stroke-linecap="round" stroke-miterlimit="10" d="M150.528,53.181
	c0,0-6.956,1.392-6.262-21.802"/>
<path fill="none" stroke="#FFFFFF" stroke-width="5" stroke-linecap="round" stroke-miterlimit="10" d="M59.711,129.681
	c-11.206,5.433-23.472,8.841-35.169,1.397c-6.593-4.195-4.845-4.519-4.823-4.523c2.097-0.369,4.905-4.879,5.68-6.742
	c2.023-4.877,1.389-11.619,0.651-16.774c-0.302-2.11-3.016-2.11-3.016-2.11S7.973,99.724,7.958,99.721
	c-1.58-0.13,2.169-7.851,2.49-8.508c3.752-7.719,9.91-13.522,18.918-13.804c0,0,14.774-33.467,34.676-43.116"/>
<circle fill="#FFFFFF" cx="38.562" cy="109.219" r="4.674"/>
<g>
	<path fill-rule="evenodd" clip-rule="evenodd" fill="#FFFFFF" d="M88.069,102.021c-2.503,0.062-4.729,2.434-4.569,4.879
		c0.181,2.76,2.195,4.671,4.851,4.596c2.611-0.076,4.657-2.245,4.578-4.852C92.845,104.076,90.625,101.961,88.069,102.021z"/>
	<path fill-rule="evenodd" clip-rule="evenodd" fill="#FFFFFF" d="M137.258,139.371l0.004-0.009
		c-3.694-2.83-7.784-6.47-10.561-9.882c-4.688-5.764-7.82-12.502-8.567-20.703c-0.322-3.52-0.173-6.448,3.951-7.567
		c0.875-0.238,1.594-1.025,2.409-1.524c4.133-2.537,5.577-6.355,5.042-10.979c-0.486-4.118-2.695-7.137-6.617-8.561
		c-2.006-0.729-4.207-0.921-6.334-1.358c-1.44-12.02-13.705-14.285-20.187-6.878c-7.74-8.125-16.643-5.11-20.196,6.888
		c-0.452,0-0.919,0.005-1.39,0c-8.641-0.089-13.738,7.577-11.296,14.75c1.111,3.255,3.615,5.25,6.473,6.936
		c1.996,1.176,1.946,2.145-0.134,3.111c-2.766,1.281-5.605,2.385-8.39,3.621c-3.53,1.568-7.036,3.192-11.056,5.021
		c6.379,4.027,12.25,7.886,18.29,11.458c2.117,1.253,2.797,2.654,2.719,5.029c-0.198,6.146-0.414,12.292-0.6,18.441
		c-0.243,8.032-0.107,16.068-0.145,24.103c0,0.002,0.326,0.005,0.326,0.009c0,0.002,0,0.004,0,0.008c0,0.026,0-0.286,0,0.714h-0.646
		c0.047,1,1.073,2.21,2.341,2.21c1.232,0,2.23-1.21,2.331-2.21h0.021c0.043-8,0.14-16.252,0.267-24.246
		c0.111-7.088,0.247-14.311,0.39-21.399c0.051-2.572-0.635-4.191-3.044-5.5c-4.156-2.259-8.031-5.067-12.471-7.907
		c4.173-1.882,7.993-3.692,11.874-5.346c2.676-1.141,5.04-5.432,4.22-8.167c-0.164-0.533-0.826-0.98-1.344-1.335
		c-1.412-0.965-2.9-1.826-4.313-2.792c-2.994-2.046-3.94-5.505-2.388-8.533c1.553-3.037,4.482-4.255,8.012-2.933
		c2.36,0.885,4.527,2.271,7.294,3.694c-0.779-2.744-1.572-4.948-2.01-7.222c-1.096-5.72,3.376-9.95,8.375-7.669
		c1.825,0.831,3.116,3.135,4.276,4.997c0.924,1.473,1.283,3.299,2.188,5.771c0.933-2.373,1.477-4.028,2.218-5.593
		c1.101-2.334,2.217-4.737,5.153-5.3c5.49-1.053,9.071,3.181,7.438,8.833c-0.568,1.971-1.296,3.896-2.195,6.571
		c2.984-1.442,5.204-2.652,7.524-3.599c2.81-1.144,5.271-0.312,7.192,1.939c1.712,2.003,2.009,4.397,0.83,6.675
		c-0.667,1.284-1.959,2.278-3.087,3.277c-0.695,0.62-1.548,1.216-2.432,1.458c-5.495,1.521-5.655,5.56-5.412,10.255
		c0.505,9.787,4.044,17.733,9.537,24.473c3.147,3.859,6.943,7.32,11.17,10.507c0.431,0.513,1.069,0.846,1.791,0.846
		c1.3,0,2.352-1.053,2.352-2.35C138.451,140.529,137.968,139.775,137.258,139.371z"/>
</g>
</svg>
