<?xml version="1.0" encoding="utf-8"?>
<!-- Generator: Adobe Illustrator 16.0.0, SVG Export Plug-In . SVG Version: 6.00 Build 0)  -->
<!DOCTYPE svg PUBLIC "-//W3C//DTD SVG 1.1//EN" "http://www.w3.org/Graphics/SVG/1.1/DTD/svg11.dtd">
<svg version="1.1" xmlns="http://www.w3.org/2000/svg" xmlns:xlink="http://www.w3.org/1999/xlink" x="0px" y="0px" width="65px"
	 height="65px" viewBox="0 0 65 65" enable-background="new 0 0 65 65" xml:space="preserve">
<g id="pig">
	<g>
		<path fill="#FFFFFF" d="M62.071,17.509c-0.046,0-0.093-0.003-0.139-0.013c-0.573-0.107-0.83-0.771-0.857-0.847
			c-0.06-0.165,0.025-0.347,0.19-0.407c0.164-0.06,0.346,0.025,0.407,0.189c0.048,0.13,0.204,0.408,0.377,0.44
			c0.015,0.003,0.047,0.009,0.101-0.031c0.031-0.022,0.059-0.054,0.086-0.091c-0.231-0.26-0.559-0.681-0.543-0.963
			c0.007-0.131,0.073-0.244,0.181-0.311c0.345-0.216,0.605-0.118,0.731-0.04c0.322,0.201,0.432,0.683,0.396,1.047
			c-0.004,0.026-0.007,0.052-0.012,0.08c0.038,0.01,0.075,0.01,0.111,0c0.09-0.026,0.172-0.121,0.217-0.247
			c0.035-0.101,0.115-0.334-0.418-0.748c-0.14-0.107-0.165-0.307-0.057-0.446c0.107-0.139,0.307-0.164,0.445-0.057
			c0.595,0.458,0.807,0.95,0.629,1.458c-0.111,0.322-0.351,0.565-0.64,0.648c-0.18,0.052-0.365,0.042-0.543-0.027
			c-0.058,0.077-0.126,0.146-0.203,0.205C62.391,17.455,62.233,17.509,62.071,17.509z"/>
		<path fill="#FFFFFF" d="M54.458,29.196c-0.184,0-0.358-0.031-0.462-0.091c-0.084-0.047-0.28-0.159-0.28-0.88l-0.069-2.591
			l0.636-0.015l0.068,2.598c0.001,0.12,0.012,0.253,0.025,0.34c0.084,0.006,0.197,0.001,0.268-0.013
			c0.192-0.382,0.75-1.709,1.367-3.32l0.594,0.227c-1.5,3.917-1.463,3.532-1.553,3.599C54.919,29.149,54.683,29.196,54.458,29.196z"
			/>
		<path fill="#FFFFFF" d="M45.257,26.104l-1.569,2.465c-0.327,0.562-0.56,0.562-0.647,0.562c-0.026,0-0.07,0.004-0.123,0.008
			c-0.097,0.007-0.217,0.015-0.331,0.015c-0.199,0-0.418-0.023-0.535-0.199c-0.079-0.119-0.132-0.197,0.302-1.932
			c-0.32,0.252-0.678,0.515-0.934,0.648c-0.782,0.41-1.818,0.881-2.882,0.881c-0.66,0-1.282-0.182-1.845-0.54
			c-0.592-0.378-0.767-0.577-0.719-0.823c0.025-0.138,0.132-0.245,0.27-0.273c0.102-0.052,0.337-0.374,0.424-0.584
			c0.198-0.478,0.131-1.003,0.059-1.521C36.71,24.807,36.692,25,36.689,25h-0.025c0,0-1.727-0.334-1.729-0.334
			c-0.117-0.01-0.223-0.174-0.281-0.277c-0.063-0.114-0.161-0.334,0.309-1.299c0.509-1.047,1.281-1.67,2.242-1.77
			c0.37-0.786,1.943-3.914,4.04-4.93c3.302-1.601,7.097-2.718,11.28-3.111C53.646,13.174,54.778,13,55.894,13h0.068
			c2.15,0,4.02,0.917,5.263,2.405c1.697,2.029,0.671,4.842-0.009,6.669c-0.257,0.693-0.561,1.4-0.854,2.06
			c-0.432,0.969-0.878,1.983-1.17,3.012c-0.052,0.179-0.093,0.368-0.135,0.563c-0.088,0.401-0.179,0.819-0.373,1.209
			c-0.135,0.271-0.53,0.302-0.693,0.302c-0.187,0-0.438-0.037-0.57-0.215c-0.071-0.096-0.16-0.213-0.137-3.508
			c-0.577,0.213-1.698,0.539-3.445,0.7c-1.082,0.099-2.266,0.173-3.38,0.212l-0.208-0.629c1.156-0.037,2.398-0.112,3.529-0.217
			c2.512-0.231,3.667-0.821,3.678-0.827l0.47-0.246l-0.004,0.739C57.909,26.688,57.919,28,57.957,29c0.011,0,0.021,0,0.033,0
			c0.066,0,0.122-0.217,0.158-0.227c0.138-0.299,0.21-0.737,0.287-1.09c0.043-0.194,0.087-0.45,0.144-0.648
			c0.305-1.072,0.76-2.12,1.201-3.109c0.29-0.65,0.59-1.336,0.84-2.01c0.798-2.148,1.464-4.304,0.116-5.915
			C59.616,14.661,57.92,14,55.962,14h-0.063c-1.097,0-2.212-0.017-3.313,0.087c-4.107,0.388-7.83,1.336-11.063,2.904
			c-2.148,1.042-3.8,4.76-3.817,4.797L37.625,22h-0.201c-1.014,0-1.587,0.738-1.889,1.359c-0.104,0.213-0.184,0.383-0.235,0.522
			c0.465,0.038,1.3,0.095,1.404,0.103c0.279,0.006,0.596,0.161,0.646,0.509c0.092,0.643,0.164,1.458-0.096,2.084
			c-0.002,0.007-0.196,0.438-0.483,0.723c0.065,0.046,0.151,0.104,0.263,0.176c0.467,0.297,0.959,0.44,1.504,0.44
			c0.925,0,1.868-0.432,2.587-0.809c0.419-0.219,1.274-0.935,1.568-1.192l0.777-0.677l-0.26,0.997
			c-0.226,0.869-0.459,1.833-0.547,2.28c0.071-0.002,0.146-0.007,0.209-0.013c0.032-0.001,0.062-0.003,0.088-0.005
			c0.049-0.053,0.128-0.161,0.187-0.26l1.825-2.87l0.229,0.068"/>
		<circle fill="#FFFFFF" cx="38.468" cy="25.241" r="0.535"/>
	</g>
</g>
<g id="fish">
	<g>
		<polygon fill="#FFFFFF" points="17.813,16.056 17.187,15.805 18.531,12.445 12.515,15.639 12.199,15.043 19.841,10.985 		"/>
		<path fill="#FFFFFF" d="M26.004,22.735l3.693,1.803l-1.932-2.098l2.007-2.57l-1.998,0.937l-0.147-0.676l4.412-2.07l-3.39,4.343
			l3.97,4.311l-6.708-3.274L26.004,22.735z"/>
		<polyline fill="#FFFFFF" points="18.533,31.747 14.396,29.637 14.703,29.036 18.124,30.782 17.346,28.255 17.991,28.058 
			18.62,30.105 		"/>
		<path fill="#FFFFFF" d="M18.615,28.105c-1.307,0.818-2.803,1.523-4.054,1.567c-0.066,0.003-0.135,0.005-0.203,0.005
			c-2.526,0-5.714-1.614-7.606-3.112c-2.045-1.618-3.634-4.11-3.701-4.215l-0.125-0.198l0.142-0.188
			c0.182-0.238,4.496-5.837,7.943-6.699c0.888-0.222,1.78-0.334,2.652-0.334c2.411,0,4.631,0.841,6.422,2.433l-0.448,0.504
			c-1.665-1.48-3.73-2.264-5.974-2.264c-0.816,0-1.654,0.106-2.488,0.314c-2.882,0.721-6.638,5.281-7.423,6.267
			c0.417,0.619,1.789,2.559,3.419,3.85c1.804,1.428,4.824,2.965,7.188,2.965c0.06,0,0.12-0.001,0.179-0.002
			c1.239-0.045,2.799-0.848,4.106-1.715"/>
		<path fill="#FFFFFF" d="M8.548,27.72l-0.476-0.477c0.119-0.12,2.932-2.956,3.191-5.196c0.236-2.045-2.112-5.555-2.136-5.59
			l0.559-0.377c0.103,0.152,2.512,3.755,2.248,6.044C11.647,24.596,8.675,27.594,8.548,27.72z"/>
		<circle fill="#FFFFFF" cx="7.888" cy="20.314" r="1.096"/>
	</g>
</g>
<g id="chicken">
	<g>
		<path fill-rule="evenodd" clip-rule="evenodd" fill="#FFFFFF" d="M50.151,31.437c0.496-0.44,0.828-0.926,0.822-1.604
			c-0.005-0.675-0.385-1.134-0.838-1.583c0.509-0.429,0.813-0.936,0.817-1.573c0.005-0.659-0.372-1.148-0.813-1.597
			c0.093-0.11,0.162-0.199,0.237-0.283c0.884-0.977,0.681-2.324-0.492-2.948c-0.375-0.198-0.521-0.419-0.592-0.828
			c-0.223-1.265-1.568-1.834-2.552-1.075c-0.567,0.438-0.783,1.097-0.786,1.812c-0.005,1.234-0.27,2.438-0.789,3.527
			c-1.146,2.404-2.951,4.175-5.461,5.175c-1.686,0.671-3.429,0.822-5.204,0.563c-1.887-0.276-3.617-0.983-5.132-2.146
			c-1.689-1.293-2.919-2.882-3.121-5.101c-0.055-0.599-0.029-1.096,0.672-1.286c0.148-0.04,0.271-0.175,0.41-0.259
			c0.701-0.432,0.947-1.08,0.855-1.866c-0.082-0.699-0.458-1.213-1.125-1.455c-0.34-0.123-0.715-0.156-1.076-0.23
			c-0.244-2.042-2.329-2.769-3.43-1.51C21.239,15.79,19.726,16,19.122,18c-0.077,0-0.156,0-0.236,0
			c-1.468,0-2.334,1.628-1.919,2.848c0.189,0.553,0.614,1.062,1.101,1.349c0.339,0.2,0.33,0.45-0.024,0.614
			c-0.47,0.218-0.953,0.447-1.425,0.657c-0.6,0.268-1.196,0.564-1.879,0.875c1.084,0.685,2.082,1.351,3.108,1.958
			c0.359,0.213,0.475,0.457,0.462,0.86c-0.079,2.415-0.171,4.832-0.182,7.248c-0.009,1.76,0.284,3.493,0.987,5.119
			c1.848,4.266,5.011,6.997,9.56,8.064c0.387,0.091,0.57,0.201,0.568,0.647c-0.003,1.739,0.762,3.001,2.401,3.695
			c0.132,0.057,0.265,0.278,0.274,0.431c0.031,0.549,0.004,1.103,0.016,1.653c0.006,0.245-0.077,0.35-0.332,0.359
			c-0.323,0.013-0.645,0.059-0.967,0.1c-0.48,0.06-0.967,0.108-1.442,0.201c-0.273,0.054-0.542,0.187-0.476,0.555
			c0.057,0.315,0.279,0.408,0.576,0.381c0.34-0.032,0.678-0.057,1.017-0.089c1.149-0.108,2.286-0.476,3.458-0.142
			c0.355,0.101,0.729,0.147,1.094,0.214c0.304,0.054,0.612,0.08,0.693-0.32c0.084-0.409-0.083-0.541-0.404-0.615
			c-0.421-0.1-0.15-0.184-1.15-0.275c0-0.787,0-1.526,0-2.259c2-0.626,2.889-2.088,2.894-4.138c1.047-0.201,2.008-0.315,2.978-0.601
			c2.609-0.766,4.778-2.193,6.517-4.299c1.814-2.198,2.887-4.696,3.031-7.564c0.021-0.411,0.163-0.63,0.53-0.812
			c0.697-0.344,1.034-0.928,1.034-1.729C50.982,32.322,50.61,31.878,50.151,31.437z M49.173,34.146
			c-0.371,0.037-0.478,0.18-0.485,0.545c-0.074,3.277-1.21,6.132-3.476,8.514c-2.175,2.286-4.814,3.567-7.955,3.87
			C36.856,47.113,36,47.148,36,47.193c0,0.354,0,0.705,0,1.054c0,1.729-0.907,2.782-2.617,3.117
			c-0.291,0.057-0.436,0.174-0.428,0.479c0.014,0.584-0.002,1.169-0.007,1.752c-0.001,0.171-0.021,0.34-0.028,0.511
			c-0.063-0.003-0.128-0.003-0.189-0.004c0-0.624-0.029-1.249,0.006-1.87c0.033-0.548-0.063-0.851-0.7-1.02
			c-1.214-0.322-1.964-1.429-2.011-2.689c-0.002-0.081-0.004-0.162-0.004-0.243c-0.012-1.218-0.013-1.21-1.209-1.465
			c-2.922-0.623-5.284-2.145-7.14-4.467c-1.848-2.313-2.764-4.961-2.746-7.918c0.014-2.563,0.06-5.126,0.111-7.688
			c0.009-0.438-0.107-0.702-0.517-0.924c-0.707-0.384-1.365-0.855-2.12-1.339c0.71-0.319,1.358-0.624,2.018-0.905
			c0.455-0.194,0.856-0.922,0.717-1.387c-0.027-0.09-0.14-0.165-0.229-0.226c-0.24-0.164-0.492-0.311-0.733-0.475
			c-0.508-0.348-0.669-0.935-0.406-1.449c0.264-0.516,0.762-0.724,1.361-0.498c0.402,0.15,0.77,0.386,1.24,0.627
			c-0.132-0.466-0.267-0.84-0.342-1.227c-0.186-0.973,0.574-1.691,1.423-1.304c0.311,0.142,0.53,0.532,0.727,0.849
			c0.157,0.25,0.218,0.561,0.372,0.981c0.158-0.403,0.251-0.685,0.377-0.951c0.188-0.396,0.377-0.805,0.876-0.9
			c0.933-0.179,1.541,0.54,1.264,1.501c-0.097,0.336-0.221,0.662-0.373,1.117c0.508-0.245,0.885-0.451,1.279-0.611
			c0.477-0.195,0.896-0.053,1.221,0.329c0.292,0.341,0.342,0.747,0.143,1.135c-0.113,0.218-0.334,0.387-0.524,0.556
			c-0.119,0.106-0.264,0.207-0.413,0.249c-0.935,0.258-0.962,0.944-0.92,1.742c0.137,2.662,1.595,4.522,3.621,6.022
			c1.438,1.064,3.08,1.733,4.828,2.068c1.714,0.328,3.415,0.272,5.128-0.249c1.819-0.553,3.375-1.463,4.696-2.798
			c1.896-1.915,2.822-4.256,3.005-6.924c0.023-0.325,0.122-0.677,0.287-0.955c0.332-0.563,1.027-0.557,1.317,0.023
			c0.164,0.329,0.192,0.74,0.217,1.118c0.02,0.299,0.095,0.429,0.415,0.45c0.697,0.048,1.162,0.532,1.146,1.14
			c-0.015,0.574-0.527,1.079-1.184,1.117c-0.271,0.016-0.388,0.096-0.363,0.371c0.024,0.251-0.051,0.529,0.356,0.562
			c0.248,0.019,0.52,0.084,0.729,0.213c0.4,0.247,0.586,0.771,0.435,1.191c-0.162,0.453-0.468,0.789-0.985,0.816
			c-0.351,0.018-0.55,0.107-0.51,0.515c0.028,0.298,0.124,0.408,0.442,0.427c0.74,0.042,1.16,0.55,1.098,1.255
			c-0.047,0.531-0.477,0.97-1.073,1.001c-0.379,0.021-0.404,0.206-0.408,0.499c-0.005,0.316,0.116,0.415,0.429,0.429
			c0.604,0.026,1.085,0.523,1.108,1.083C50.237,33.587,49.816,34.078,49.173,34.146z"/>
		<path fill-rule="evenodd" clip-rule="evenodd" fill="#FFFFFF" d="M39.229,34.635c-1.369-0.469-2.833-0.786-4.269-0.965
			c-1.906-0.239-4.004,0.011-5.836,0.563c-0.522,0.156-1.037,0.35-1.536,0.572c-0.294,0.132-0.487,0.17-0.679-0.208
			c-0.48-0.949-1.579-1.475-2.461-1.254c-1.091,0.273-1.816,1.142-1.758,2.302c0.036,0.714,0.207,1.44,0.432,2.121
			c0.824,2.49,2.304,4.506,4.555,5.89c2.501,1.537,5.253,1.877,8.101,1.461c2.037-0.297,3.949-1.011,5.663-2.174
			c0.607-0.41,1.144-0.925,1.714-1.392c0.276-0.233,0.576-0.444,0.828-0.702c0.752-0.774,1.41-1.621,1.941-2.6
			c-0.069-0.048-0.11-0.073-0.149-0.104C43.767,36.654,41.6,35.445,39.229,34.635z M42.938,40.759
			c-0.377,0.38-0.772,0.741-1.197,1.073c-0.523,0.41-1.094,0.747-1.688,1.043c-0.276,0.14-0.559,0.271-0.842,0.4
			c-0.449,0.202-0.905,0.387-1.371,0.546c-1.336,0.455-2.741,0.709-4.154,0.669c-0.82-0.024-1.678-0.105-2.482-0.275
			c-2.635-0.552-4.682-1.973-6.154-4.206c-0.799-1.212-1.335-2.551-1.57-3.988c-0.056-0.346,0.007-0.752,0.139-1.081
			c0.223-0.554,0.707-0.885,1.302-0.847c0.752,0.048,1.22,0.545,1.481,1.229c0.088,0.223,0.139,0.46,0.222,0.745
			c0.409-0.177,0.792-0.333,1.165-0.503c2.464-1.118,5.047-1.33,7.702-1.064c0.012,0.001,0.024-0.002,0.039,0.001
			c0.057,0,0.961,0.175,1.067,0.187c2.202,0.472,4.252,1.328,6.2,2.441c0.713,0.409,1.396,0.869,2.189,1.368
			c-0.096-0.059-1.183,1.325-1.295,1.452C43.446,40.226,43.197,40.496,42.938,40.759z"/>
		<path fill-rule="evenodd" clip-rule="evenodd" fill="#FFFFFF" d="M21.139,22.628c-0.425,0.011-0.803,0.414-0.777,0.829
			c0.032,0.469,0.374,0.794,0.825,0.781c0.443-0.013,0.791-0.382,0.778-0.824C21.951,22.978,21.573,22.617,21.139,22.628z"/>
	</g>
</g>
<g id="cow">
</g>
</svg>
