<?xml version="1.0" encoding="utf-8"?>
<!-- Generator: Adobe Illustrator 16.0.0, SVG Export Plug-In . SVG Version: 6.00 Build 0)  -->
<!DOCTYPE svg PUBLIC "-//W3C//DTD SVG 1.1//EN" "http://www.w3.org/Graphics/SVG/1.1/DTD/svg11.dtd">
<svg version="1.1" id="Layer_1" xmlns="http://www.w3.org/2000/svg" xmlns:xlink="http://www.w3.org/1999/xlink" x="0px" y="0px"
	 width="200px" height="200px" viewBox="0 0 200 200" enable-background="new 0 0 200 200" xml:space="preserve">
<path fill="none" stroke="#3E3E3E" stroke-width="8" stroke-linecap="round" stroke-miterlimit="10" d="M58.827,182.802
	c7.76-11.335,14.423-24.039,17.588-37.493c3.045-12.934,15.218-24.009,25.489-21.727c10.274,2.281,23.117,11.781,24.729,13.292
	c1.609,1.511,6.047,5.17,9.066,2.856c3.266-2.504,26.314-22.654,26.314-22.654s3.802-2.669-0.765-7.995l-42.986-51.739
	c0,0-0.38-4.946,3.423-7.99c3.805-3.042,9.13-12.173,6.849-13.694c-2.284-1.522-14.076-2.664-23.586,1.521
	c-9.513,4.185-31.197,17.869-39.188,20.532c-7.987,2.665-28.53,9.119-28.53,9.119"/>
<circle fill="#3E3E3E" cx="104.949" cy="81.69" r="7.609"/>
<path fill="none" stroke="#3E3E3E" stroke-width="10" stroke-linecap="round" stroke-miterlimit="10" d="M95.057,54.678
	c0,0-11.413,2.284-10.271-35.76"/>
</svg>
