<?xml version="1.0" encoding="utf-8"?>
<!-- Generator: Adobe Illustrator 16.0.0, SVG Export Plug-In . SVG Version: 6.00 Build 0)  -->
<!DOCTYPE svg PUBLIC "-//W3C//DTD SVG 1.1//EN" "http://www.w3.org/Graphics/SVG/1.1/DTD/svg11.dtd">
<svg version="1.1" id="Layer_1" xmlns="http://www.w3.org/2000/svg" xmlns:xlink="http://www.w3.org/1999/xlink" x="0px" y="0px"
	 width="200px" height="200px" viewBox="0 0 200 200" enable-background="new 0 0 200 200" xml:space="preserve">
<g>
	<path fill-rule="evenodd" clip-rule="evenodd" fill="#3E3E3E" d="M85.607,69.788c-4.105,0.101-7.755,3.991-7.495,8.002
		c0.297,4.528,3.602,7.664,7.956,7.538c4.283-0.125,7.639-3.681,7.51-7.957C93.44,73.158,89.8,69.687,85.607,69.788z"/>
	<path fill-rule="evenodd" clip-rule="evenodd" fill="#3E3E3E" d="M166.288,131.049l0.008-0.013
		c-6.06-4.643-12.771-10.61-17.323-16.209c-7.688-9.454-12.826-20.506-14.052-33.958c-0.528-5.773-0.282-10.577,6.479-12.412
		c1.438-0.39,2.614-1.681,3.953-2.5c6.778-4.161,9.148-10.424,8.269-18.008c-0.796-6.753-4.42-11.706-10.854-14.041
		c-3.29-1.195-6.9-1.511-10.389-2.228c-2.362-19.715-22.479-23.431-33.11-11.282C86.573,7.07,71.971,12.017,66.143,31.696
		c-0.742,0-1.508,0.008-2.28,0C49.69,31.549,41.329,44.124,45.336,55.89c1.822,5.339,5.929,8.61,10.618,11.377
		c3.273,1.928,3.191,3.519-0.221,5.104c-4.536,2.1-9.194,3.91-13.761,5.939c-5.791,2.572-11.541,5.235-18.135,8.237
		c10.463,6.604,20.093,12.933,29.999,18.792c3.472,2.055,4.589,4.353,4.459,8.25c-0.324,10.082-0.677,20.162-0.982,30.247
		c-0.398,13.177-0.48,26.356-0.543,39.534c0,0.005,0.231,0.01,0.231,0.015c0,0.004,0,0.008,0,0.012c0,0.045,0-0.397,0,0.603h-0.45
		c0.078,2,1.761,3.624,3.841,3.624c2.021,0,3.659-1.624,3.823-3.624h0.032c0.073-13,0.231-26.374,0.438-39.486
		c0.184-11.627,0.405-23.328,0.641-34.955c0.083-4.219-1.042-6.806-4.995-8.951c-6.816-3.704-13.171-8.275-20.454-12.936
		c6.845-3.085,13.11-6.036,19.475-8.749c4.39-1.871,8.268-8.901,6.922-13.387c-0.268-0.874-1.354-1.603-2.204-2.184
		c-2.316-1.583-4.757-2.995-7.076-4.58c-4.91-3.356-6.462-9.027-3.917-13.993c2.548-4.982,7.352-6.98,13.141-4.811
		c3.872,1.45,7.426,3.727,11.963,6.061c-1.277-4.5-2.578-8.116-3.295-11.847c-1.797-9.382,5.538-16.319,13.736-12.579
		c2.993,1.363,5.11,5.142,7.013,8.196c1.517,2.416,2.104,5.413,3.589,9.467c1.53-3.892,2.423-6.607,3.64-9.175
		c1.806-3.828,3.635-7.77,8.452-8.693c9.005-1.727,14.879,5.218,12.201,14.489c-0.933,3.232-2.126,6.391-3.602,10.777
		c4.895-2.366,8.535-4.35,12.343-5.904c4.606-1.876,8.644-0.511,11.796,3.181c2.808,3.286,3.296,7.213,1.362,10.95
		c-1.096,2.105-3.214,3.736-5.064,5.374c-1.14,1.016-2.539,1.994-3.986,2.394c-9.016,2.493-9.277,9.119-8.878,16.822
		c0.826,16.053,6.633,29.085,15.643,40.139c5.162,6.331,11.388,12.007,18.321,17.233c0.707,0.842,1.754,1.389,2.939,1.389
		c2.129,0,3.855-1.727,3.855-3.855C168.246,132.95,167.452,131.713,166.288,131.049z"/>
</g>
</svg>
