<?xml version="1.0" encoding="utf-8"?>
<!-- Generator: Adobe Illustrator 16.0.0, SVG Export Plug-In . SVG Version: 6.00 Build 0)  -->
<!DOCTYPE svg PUBLIC "-//W3C//DTD SVG 1.1//EN" "http://www.w3.org/Graphics/SVG/1.1/DTD/svg11.dtd">
<svg version="1.1" id="Layer_1" xmlns="http://www.w3.org/2000/svg" xmlns:xlink="http://www.w3.org/1999/xlink" x="0px" y="0px"
	 width="200px" height="200px" viewBox="0 0 200 200" enable-background="new 0 0 200 200" xml:space="preserve">
<polyline fill="none" stroke="#FFFFFF" stroke-width="8" stroke-miterlimit="10" points="68.935,61.125 110.144,39.25 
	99.969,64.686 "/>
<polygon fill="none" stroke="#FFFFFF" stroke-width="8" stroke-miterlimit="10" points="143.65,102.334 184.857,83.001 
	169.535,102.903 186.385,123.192 "/>
<polyline fill="none" stroke="#FFFFFF" stroke-width="8" stroke-miterlimit="10" points="82.163,145.576 107.091,158.295 
	100.986,138.454 "/>
<path fill="none" stroke="#FFFFFF" stroke-width="8" stroke-miterlimit="10" d="M14.5,102.334c0,0,26.454-34.595,46.805-39.683
	c20.35-5.087,39.172,0,52.909,12.209c13.736,12.211,25.437,27.473,25.437,27.473s-10.684,14.752-16.788,20.858
	c-6.104,6.104-26.455,21.875-40.699,22.384c-14.245,0.51-33.577-8.647-45.787-18.314C24.167,117.596,14.5,102.334,14.5,102.334z"/>
<circle fill="#FFFFFF" cx="41.972" cy="91.141" r="6.614"/>
<path fill="none" stroke="#FFFFFF" stroke-width="8" stroke-miterlimit="10" d="M53.399,65.846c0,0,34.72,38.109,0,72.051"/>
</svg>
