<?xml version="1.0" encoding="utf-8"?>
<!-- Generator: Adobe Illustrator 16.0.0, SVG Export Plug-In . SVG Version: 6.00 Build 0)  -->
<!DOCTYPE svg PUBLIC "-//W3C//DTD SVG 1.1//EN" "http://www.w3.org/Graphics/SVG/1.1/DTD/svg11.dtd">
<svg version="1.1" id="Layer_1" xmlns="http://www.w3.org/2000/svg" xmlns:xlink="http://www.w3.org/1999/xlink" x="0px" y="0px"
	 width="200px" height="200px" viewBox="0 0 200 200" enable-background="new 0 0 200 200" xml:space="preserve">
<path fill="none" stroke="#FFFFFF" stroke-width="8" stroke-linecap="round" stroke-miterlimit="10" d="M157.955,152.698
	c0,0-15.579,13.602-23.368,17.682c-19.816,10.38-42.062,18.506-63.179,5.068c-10.814-6.882-7.947-7.411-7.912-7.42
	c3.439-0.604,8.046-8.003,9.316-11.059c3.32-8.001,2.279-19.058,1.069-27.515c-0.496-3.461-4.946-3.461-4.946-3.461
	s-24.705-1.976-24.73-1.979c-2.591-0.214,3.559-12.877,4.084-13.955c6.154-12.661,16.255-22.181,31.031-22.641
	c0,0,24.233-54.896,56.877-70.721"/>
<circle fill="#FFFFFF" cx="94.404" cy="139.593" r="7.666"/>
</svg>
