<?xml version="1.0" encoding="utf-8"?>
<!-- Generator: Adobe Illustrator 16.0.0, SVG Export Plug-In . SVG Version: 6.00 Build 0)  -->
<!DOCTYPE svg PUBLIC "-//W3C//DTD SVG 1.1//EN" "http://www.w3.org/Graphics/SVG/1.1/DTD/svg11.dtd">
<svg version="1.1" id="Layer_1" xmlns="http://www.w3.org/2000/svg" xmlns:xlink="http://www.w3.org/1999/xlink" x="0px" y="0px"
	 width="200px" height="200px" viewBox="0 0 200 200" enable-background="new 0 0 200 200" xml:space="preserve">
<path fill="none" stroke="#3E3E3E" stroke-width="8" stroke-miterlimit="10" d="M137.893,119.57
	c-3.307,6.734-6.936,15.41-8.021,22.856c-2.141,14.65-0.309,29.323,0.02,31.464c0.332,2.141,1,5.442,1,5.442
	s-5.099,2.804-13.164,3.134c-8.067,0.329-14.322,0.001-19.589-1.314c-5.269-1.316-6.912-1.976-6.912-1.976s0.493-8.395-0.987-17.448
	c-1.481-9.056-3.622-16.791-7.079-21.73c-2.31-3.3-10.749-13.709-16.094-20.254"/>
<path fill="none" stroke="#3E3E3E" stroke-width="8" stroke-miterlimit="10" d="M104.889,111.781c0,0,0.354,1.197,0.953,2.789
	c0.66,1.755,1.618,3.988,2.727,5.621c2.576,3.806,4.388,5.057,9.162,5.221c4.772,0.164,8.064-3.243,10.207-5.712
	c0.322-0.373,0.789-1.05,1.349-1.929"/>
<path fill="none" stroke="#3E3E3E" stroke-width="8" stroke-miterlimit="10" d="M79.329,119.943c2.764,3.791,5.498,7.42,6.371,8.184
	c2.489,2.178,10.336,1.5,10.665-0.969c0.151-1.135-1.332-4.785-3.203-8.654"/>
<path fill="none" stroke="#3E3E3E" stroke-width="8" stroke-miterlimit="10" d="M42.915,108.213c0,0,18.202,12.758,34.85,11.824
	c16.646-0.934,26.915-2.645,36.406-11.201c0,0,4.666,7.623,11.356,9.335c6.688,1.71,15.715,0.31,19.76-1.712
	c0,0,12.135,7,20.225,8.867c11.947,2.758,22.375-0.163,24.674-13.064c1.998-11.209-1.764-23.494-10.67-30.965
	c0,0,2.955-6.533-0.468-14.313c-3.423-7.779-9.801-15.092-20.226-16.959c-0.033-0.428-0.772-3.814-0.819-3.952
	c-6.499-19.567-34.165-33.727-53.554-25.391c-3.323,1.428-6.545,3.268-9.456,5.408c-0.476,0.351-5.868,5.422-5.871,5.421
	c0,0-7.312-2.957-13.691-0.312c-6.379,2.646-8.712,10.735-8.712,10.735s-16.025-2.023-27.851,5.135
	c-11.823,7.156-12.291,18.98-11.356,26.137c0,0-10.112,6.535-14.624,15.402c-4.513,8.868-6.38,19.76-1.712,25.826
	C15.843,120.504,30.779,119.881,42.915,108.213z"/>
</svg>
