<?xml version="1.0" encoding="utf-8"?>
<!-- Generator: Adobe Illustrator 16.0.0, SVG Export Plug-In . SVG Version: 6.00 Build 0)  -->
<!DOCTYPE svg PUBLIC "-//W3C//DTD SVG 1.1//EN" "http://www.w3.org/Graphics/SVG/1.1/DTD/svg11.dtd">
<svg version="1.1" id="Layer_1" xmlns="http://www.w3.org/2000/svg" xmlns:xlink="http://www.w3.org/1999/xlink" x="0px" y="0px"
	 width="65px" height="65px" viewBox="0 0 65 65" enable-background="new 0 0 65 65" xml:space="preserve">
<g id="cow">
</g>
<g>
	<path fill="#323232" d="M12.149,27.566l1.535,3.209c1.813-1.342,4.055-2.137,6.483-2.137c6.021,0,10.901,4.881,10.901,10.901
		c0,1.993-0.535,3.861-1.469,5.469l0.94-0.229c0.799-1.574,1.25-3.355,1.25-5.24c0-6.408-5.213-11.622-11.622-11.622
		c-2.218,0-4.343,0.615-6.196,1.789L12.8,27.256l-1.175-2.458l0,0l-0.194,2.717l-0.101,1.412l-3.704-1.994l-3.429-1.847l2.542,2.952
		l2.084,2.421l-1.759,0.567l-2.239,0.722l2.26,0.656l3.249,0.943c-1.172,1.852-1.787,3.973-1.787,6.193
		c0,6.409,5.214,11.622,11.622,11.622c0.774,0,1.53-0.076,2.262-0.221l-2.262-0.5c-0.333,0-0.665-0.015-0.991-0.044
		c-5.557-0.501-9.911-5.171-9.911-10.857c0-2.483,0.832-4.772,2.231-6.605l-4.213-1.224l2.793-0.901l-2.793-3.243l4.685,2.522
		L12.149,27.566"/>
</g>
<g>
	<path fill="#323232" d="M56.589,37.632c0.16,0,0.322,0.048,0.464,0.146c0.367,0.257,0.456,0.763,0.199,1.13l-2.724,3.898
		l6.462-1.342c0.055-0.012,0.11-0.017,0.165-0.017c0.374,0,0.716,0.263,0.796,0.646c0.091,0.439-0.191,0.869-0.631,0.96l-6.63,1.377
		l4.55,1.419c0.428,0.133,0.666,0.588,0.532,1.016c-0.094,0.302-0.348,0.51-0.639,0.559c-0.045,0.008-0.09,0.012-0.136,0.012
		c-0.08,0-0.161-0.012-0.242-0.037l-5.486-1.712c-0.774,1.064-2.512,2.119-3.184,2.616c-1.948,1.442-4.093,2.011-6.441,2.011
		c-0.211,0-0.424-0.005-0.638-0.014c-0.81-0.035-1.625-0.066-2.439-0.066c-0.418,0-0.836,0.009-1.251,0.028
		c-0.469,0.02-0.935,0.04-1.4,0.061l-0.434-2.547c-0.067-0.396-0.41-0.676-0.8-0.676c-0.044,0-0.091,0.004-0.136,0.012
		c-0.442,0.075-0.74,0.494-0.664,0.937l0.397,2.337c-0.208,0.007-0.417,0.018-0.624,0.022c-1.207,0.045-2.402,0.055-3.556,0.073
		c-0.863,0.001-1.704,0.008-2.516,0.008c-0.276,0-0.551-0.001-0.82-0.004c-1.062-0.001-2.066-0.012-2.995-0.027
		c-3.713-0.056-6.208-0.21-6.208-0.21l-0.159-0.937c0,0,2.304-0.97,5.79-2.25c0.269-0.1,0.547-0.201,0.83-0.304l0.296,1.741
		c0.067,0.396,0.411,0.676,0.799,0.676c0.045,0,0.091-0.004,0.136-0.012c0.442-0.074,0.739-0.494,0.665-0.937l-0.345-2.027
		c0.145-0.052,0.289-0.103,0.435-0.154c1-0.359,2.058-0.718,3.151-1.099c1.096-0.365,2.226-0.75,3.38-1.107
		c1.152-0.371,2.328-0.713,3.502-1.071c1.175-0.352,2.333-0.802,3.471-1.258c0.104-0.041,0.2-0.08,0.292-0.119l0.741,4.349
		c0.066,0.396,0.409,0.676,0.798,0.676c0.046,0,0.092-0.004,0.138-0.012c0.441-0.074,0.738-0.494,0.663-0.937l-0.799-4.7
		c0.252-0.08,0.528-0.152,0.866-0.215c0.586-0.11,1.199-0.164,1.819-0.164c1.436,0,2.91,0.283,4.188,0.793
		c0.831,0.332,1.875,0.658,2.585,1.263l3.119-4.463C56.081,37.753,56.333,37.632,56.589,37.632 M43.345,40.766l-0.815-0.495
		l-0.166,0.106l-0.835,0.347c-0.091,0.038-0.184,0.076-0.283,0.115c-1.082,0.435-2.237,0.887-3.41,1.236
		c-0.384,0.117-0.763,0.231-1.142,0.346c-0.782,0.235-1.59,0.479-2.375,0.731c-0.92,0.284-1.834,0.59-2.717,0.885
		c-0.226,0.076-0.448,0.149-0.67,0.224l-0.005,0.002l-0.005,0.002c-0.389,0.136-0.771,0.268-1.15,0.398
		c-0.698,0.241-1.358,0.469-2.007,0.702c-0.126,0.045-0.253,0.09-0.381,0.136l-0.052,0.019l-0.57,0.203 M26.761,45.723
		c-0.284,0.104-1.549,0.563-1.819,0.661c-1.807,0.664-3.292,1.243-4.218,1.611c-0.526,0.21-0.932,0.375-1.181,0.477
		c-0.593,0.243-0.7,0.287-0.813,0.578l-0.071,0.186l0.033,0.196l0.159,0.937l0.041,0.234l0.171,0.164
		c0.195,0.188,0.263,0.191,0.91,0.226c0.268,0.014,0.706,0.036,1.271,0.06c0.997,0.041,2.589,0.097,4.516,0.126
		c0.955,0.016,1.967,0.025,3.003,0.028c0.269,0.002,0.544,0.003,0.823,0.003c0.421,0,0.849-0.102,1.284-0.104
		C31.273,51.104,31.685,51,32.101,51h0.006h0.006c0.235,0,0.472,0.094,0.71,0.09c0.929-0.014,1.889,0.023,2.856-0.013
		c0.129-0.002,0.26,0.017,0.39,0.012c0.079-0.003,0.157,0.006,0.236,0.003l0.824-0.021l-0.138-0.81l0.228-0.461
		c-0.009-0.049-0.14,1.284-0.09,1.275c0.006-0.001-0.276-1.976-0.271-1.976c0.036,0,0.127,0.052,0.136,0.101l0.211,1.243
		l0.106,0.628l0.637-0.029l0.296-0.013c0.366-0.017,0.732-0.032,1.101-0.048c0.389-0.018,0.786-0.026,1.223-0.026
		c0.807,0,1.634,0.031,2.407,0.065c0.227,0.009,0.451,0.014,0.67,0.014c2.667,0,4.914-0.703,6.871-2.152
		c0.128-0.095,0.307-0.218,0.513-0.359c0.727-0.499,1.771-1.216,2.489-2.003l5.024,1.566c0.148,0.047,0.302,0.07,0.456,0.07
		c0.086,0,0.173-0.007,0.257-0.022c0.57-0.097,1.032-0.5,1.206-1.053c0.251-0.808-0.2-1.668-1.007-1.92l-1.894-0.59l3.907-0.813
		c0.826-0.171,1.359-0.983,1.188-1.811c-0.148-0.707-0.779-1.221-1.501-1.221c-0.104,0-0.208,0.011-0.311,0.031l-4.686,0.974
		l1.685-2.411c0.233-0.336,0.324-0.742,0.252-1.145c-0.071-0.404-0.295-0.755-0.631-0.989c-0.258-0.18-0.562-0.276-0.876-0.276l0,0
		l0,0c-0.501,0-0.971,0.245-1.257,0.654l-2.707,3.874c-0.546-0.319-1.147-0.549-1.696-0.759c-0.152-0.057-0.3-0.113-0.442-0.171
		c-1.364-0.544-2.948-0.844-4.456-0.844c-0.677,0-1.332,0.059-1.952,0.175c-0.349,0.066-0.652,0.142-0.954,0.239l-0.595,0.19
		l0.104,0.617"/>
</g>
<path fill="#323232" d="M39.648,17.329l0.034-0.066c0.124-0.243,0.241-0.472,0.381-0.689l0.223-0.363
	c0.043-0.07,0.093-0.136,0.142-0.202c0.029-0.041,0.061-0.082,0.084-0.116l0.239-0.327c0.043-0.06,0.094-0.114,0.142-0.169
	c0.032-0.037,0.064-0.072,0.086-0.099c0.042-0.046,0.082-0.093,0.122-0.138c0.117-0.134,0.228-0.261,0.351-0.368
	c0.053-0.048,0.104-0.095,0.153-0.142c0.107-0.101,0.211-0.197,0.309-0.279l0.512-0.381c0.035-0.026,0.07-0.051,0.104-0.074
	l0.72-0.412c0.136-0.077,0.289-0.117,0.443-0.117c0.327,0,0.63,0.177,0.79,0.461c0.119,0.211,0.148,0.456,0.083,0.689
	c-0.065,0.232-0.217,0.426-0.428,0.544c-0.03,0.018-0.061,0.032-0.088,0.044l-0.614,0.25l-0.033,0.015
	c-0.037,0.018-0.073,0.039-0.11,0.06l-0.378,0.207l-0.022,0.014c-0.077,0.048-0.155,0.104-0.237,0.163
	c-0.046,0.033-0.092,0.067-0.142,0.1c-0.128,0.081-0.236,0.177-0.342,0.271c-0.036,0.032-0.073,0.065-0.125,0.109
	c-0.021,0.02-0.044,0.038-0.065,0.057c-0.053,0.044-0.113,0.095-0.176,0.161l-0.217,0.229c-0.023,0.026-0.048,0.051-0.072,0.076
	c-0.057,0.058-0.114,0.117-0.17,0.186l-0.206,0.256c-0.149,0.173-0.282,0.366-0.411,0.552l-0.055,0.079
	c-0.046,0.067-0.075,0.108-0.096,0.135c-0.398-0.1-0.802-0.164-1.207-0.191C39.448,17.692,39.521,17.578,39.648,17.329z
	 M24.054,29.01c0.491-3.729,1.689-7.09,3.351-8.956c0.885-0.994,1.835-1.497,2.824-1.497c1.232,0,2.46,0.568,3.562,1.643
	c-0.531,1.016-1.883,3.935-2.179,7.88c-0.016,0.199,0.134,0.372,0.332,0.387c0.009,0,0.019,0.001,0.027,0.001
	c0.188,0,0.345-0.144,0.359-0.333c0.318-4.237,1.939-7.319,2.242-7.863c1.344-1.121,2.85-1.714,4.365-1.714
	c1.514,0,3.02,0.592,4.361,1.71c0.217,0.589,1.537,4.572,1.1,12.565c-0.011,0.198,0.142,0.368,0.341,0.38c0.007,0,0.014,0,0.02,0
	c0.19,0,0.35-0.148,0.359-0.341c0.425-7.762-0.756-11.758-1.097-12.729c1.086-1.037,2.293-1.585,3.505-1.585
	c5.361,0,6.487,6.858,6.487,12.612c0,3.335-1.072,6.939-2.626,10.06l0.618,0.353c1.633-3.302,2.729-7.078,2.729-10.412
	c0-4.229-0.597-7.518-1.773-9.775c-1.23-2.36-3.059-3.558-5.435-3.558c-1.379,0-2.737,0.597-3.945,1.73
	c-0.669-0.531-1.378-0.943-2.107-1.232c0.118-0.172,0.23-0.333,0.356-0.48l0.213-0.264c0.037-0.045,0.077-0.085,0.116-0.125
	c0.03-0.031,0.062-0.063,0.086-0.089l0.214-0.226c0.032-0.034,0.067-0.063,0.102-0.091c0.031-0.027,0.063-0.053,0.079-0.069
	c0.045-0.037,0.087-0.075,0.129-0.112c0.082-0.073,0.16-0.143,0.225-0.183l0.018-0.011c0.059-0.04,0.115-0.08,0.169-0.12
	c0.062-0.044,0.12-0.086,0.178-0.123l0.381-0.209c0.015-0.008,0.03-0.018,0.044-0.025l0.616-0.251
	c0.061-0.025,0.12-0.055,0.18-0.088c0.868-0.489,1.177-1.592,0.688-2.46c-0.319-0.569-0.923-0.921-1.575-0.921
	c-0.309,0-0.614,0.081-0.885,0.232l-0.744,0.426l-0.021,0.013c-0.05,0.033-0.1,0.069-0.151,0.108l-0.524,0.39l-0.019,0.014
	c-0.121,0.101-0.236,0.209-0.357,0.323c-0.048,0.045-0.097,0.091-0.137,0.128c-0.161,0.139-0.298,0.295-0.431,0.448
	c-0.038,0.043-0.075,0.086-0.123,0.139c-0.025,0.03-0.052,0.061-0.079,0.091c-0.061,0.068-0.13,0.146-0.195,0.235l-0.245,0.334
	c-0.024,0.036-0.051,0.072-0.077,0.108c-0.062,0.083-0.123,0.167-0.182,0.261l-0.22,0.358c-0.159,0.246-0.292,0.506-0.421,0.758
	l-0.033,0.065c-0.212,0.414-0.289,0.504-0.46,0.942c-1.453,0.122-2.876,0.722-4.159,1.759c-1.223-1.167-2.6-1.783-3.999-1.783
	c-1.203,0-2.334,0.585-3.362,1.739c-1.752,1.966-3,5.364-3.519,9.166L24.054,29.01z"/>
</svg>
